<?xml version="1.0" encoding="utf-8"?>
<!-- Generator: Adobe Illustrator 23.0.0, SVG Export Plug-In . SVG Version: 6.00 Build 0)  -->
<svg version="1.1" id="Layer_1" xmlns="http://www.w3.org/2000/svg" xmlns:xlink="http://www.w3.org/1999/xlink" x="0px" y="0px"
	 viewBox="0 0 551.333 170.667" style="enable-background:new 0 0 551.333 170.667;" xml:space="preserve">
<style type="text/css">
	.st0{fill:#5B5B5F;}
	.st1{fill:#FFFFFF;}
</style>
<rect x="1713.958" y="0.02" class="st0" width="551.354" height="170.958"/>
<g>
	<ellipse class="st1" cx="470.483" cy="69.006" rx="10.974" ry="10.635"/>
	<g>
		<g>
			<g>
				<path class="st1" d="M184.573,98.548l-21.775-0.011c0-36.346-12.29-63.417-34.779-63.417c-15.919,0-28.587,17.401-28.587,17.401
					L80.648,41.583c0,0,23.179-27.804,47.537-27.804c15.922,0,29.304,7.381,39.196,19.473
					C178.789,47.198,184.573,71.398,184.573,98.548z"/>
			</g>
		</g>
		<g>
			<path class="st1" d="M168.901,54.196c8.215,10.043,13.35,26.401,15.673,44.352c0-26.832-5.732-51.657-17.023-65.459
				c-9.891-12.092-23.273-19.473-39.196-19.473c-24.358,0-47.706,27.967-47.706,27.967l18.783,10.938
				c0,0,10.057-13.735,23.337-16.902c2.196-0.573,4.508-0.896,6.936-0.896C145.627,34.723,159.009,42.104,168.901,54.196z"/>
		</g>
	</g>
	<g>
		<g>
			<g>
				<path class="st1" d="M324.667,13.616l21.775,0.011c0,36.346,12.29,63.417,34.779,63.417c15.919,0,28.587-17.401,28.587-17.401
					l18.783,10.938c0,0-23.179,27.804-47.537,27.804c-15.922,0-29.304-7.381-39.196-19.473
					C330.451,64.966,324.667,40.767,324.667,13.616z"/>
			</g>
		</g>
		<g>
			<path class="st1" d="M340.339,57.968c-8.215-10.043-13.35-26.401-15.673-44.352c0,26.988,5.732,51.657,17.023,65.459
				c9.891,12.092,23.273,19.473,39.196,19.473c24.358,0,47.706-27.967,47.706-27.967l-18.783-10.938
				c0,0-10.057,13.735-23.337,16.902c-2.196,0.573-4.508,0.896-6.936,0.896C363.613,77.441,350.23,70.06,340.339,57.968z"/>
		</g>
	</g>
	<g>
		<g>
			<g>
				<path class="st1" d="M525.667,98.548l-21.775-0.011c0-36.346-12.29-63.417-34.779-63.417c-15.919,0-28.587,17.401-28.587,17.401
					l-18.783-10.938c0,0,23.179-27.804,47.537-27.804c15.922,0,29.304,7.381,39.196,19.473
					C519.883,47.198,525.667,71.398,525.667,98.548z"/>
			</g>
		</g>
		<g>
			<path class="st1" d="M509.994,54.196c8.216,10.043,13.35,26.401,15.673,44.352c0-26.801-5.732-51.657-17.023-65.459
				c-9.891-12.092-23.273-19.473-39.196-19.473c-24.358,0-47.706,27.967-47.706,27.967l18.783,10.938
				c0,0,10.057-13.735,23.337-16.902c2.196-0.573,4.508-0.896,6.936-0.896C486.721,34.723,500.103,42.104,509.994,54.196z"/>
		</g>
	</g>
	<g>
		<path class="st1" d="M247.19,13.953c0.821-0.108,1.646-0.201,2.477-0.27C248.831,13.756,248.006,13.845,247.19,13.953z"/>
		<path class="st1" d="M304.219,56.005c0,7.707-2.385,14.937-6.559,21.176c-0.005,0.015-0.015,0.029-0.03,0.044
			c-8.544,12.748-24.559,21.323-42.903,21.323c-3.495,0-6.908-0.309-10.2-0.908c-12.388-7.726-20.441-20.273-20.441-34.439
			c0-4.54,0.831-8.909,2.365-13.013c-0.522,1.865-0.795,3.814-0.795,5.817c0,0.299,0.005,0.599,0.02,0.893
			c0.005,0.137,0.01,0.275,0.015,0.412c0.795,13.189,13.492,23.679,29.036,23.679c13.077,0,24.139-7.422,27.79-17.632
			c1.849-4.467,2.862-9.272,2.862-14.289c0-10.789-4.675-20.636-12.373-28.131c-0.643-0.628-1.307-1.237-1.985-1.826
			c-1.028-0.888-2.097-1.738-3.206-2.543c-0.739-0.54-1.497-1.059-2.274-1.556c-0.416-0.266-1.222-0.765-1.175-0.736
			C287.085,18.13,304.219,35.349,304.219,56.005z"/>
		<path class="st1" d="M205.312,55.966c0-7.707,2.386-14.937,6.559-21.176c0.005-0.015,0.015-0.029,0.03-0.044
			c8.544-12.748,24.559-21.323,42.903-21.323c3.495,0,6.919,0.369,10.211,0.967c12.388,7.726,20.431,20.213,20.431,34.38
			c0,4.54-0.831,8.909-2.365,13.013c0.522-1.865,0.795-3.814,0.795-5.817c0-0.299-0.005-0.599-0.02-0.893
			c-0.005-0.137-0.01-0.275-0.015-0.412c-0.795-13.189-13.492-23.679-29.036-23.679c-13.077,0-24.139,7.422-27.79,17.632
			c-1.849,4.467-2.862,9.272-2.862,14.289c0,10.789,4.675,20.636,12.373,28.131c0.643,0.628,1.307,1.237,1.985,1.826
			c1.028,0.888,2.097,1.738,3.206,2.543c0.739,0.54,1.499,1.055,2.274,1.556c0.39,0.25,0.758,0.543,1.153,0.784
			C222.423,93.888,205.312,76.621,205.312,55.966z"/>
	</g>
	<g>
		<g>
			<path class="st1" d="M66.754,98.534c-11.446,0-20.741-3.466-27.644-10.311c-14.801-14.676-13.408-39.85-13.408-59.526
				c0-3.883,0-11.408,0-14.421l21.983,0c0,3.472-0.065,15.338-0.065,15.338l0.03,19.087c0.271,10.352,1.508,19.991,6.673,25.112
				c2.69,2.667,6.963,3.586,12.326,3.613c0.432,0.002,2.551-0.001,2.997-0.01v21.105C69.239,98.529,67.155,98.534,66.754,98.534z"/>
		</g>
		<g>
			<path class="st1" d="M47.684,14.275l-21.983,0c0,3.013,0,10.537,0,14.421c0,19.676-1.393,44.85,13.408,59.526
				c7.319,7.082,15.223,10.678,30.536,10.298c-16.159-7.439-21.816-30.703-21.98-49.514c-0.07-8.044-0.076-19.883-0.076-19.883
				L47.684,14.275z"/>
		</g>
	</g>
</g>
<g>
	<path class="st1" d="M42.788,157.389l-14.512-34.466h-0.213c0.142,2.11,0.213,4.272,0.213,6.484v27.982h-2.61v-37.325h4.207
		l13.793,32.832h0.16l13.793-32.832h4.101v37.325h-2.743v-28.287c0-1.975,0.106-4.017,0.319-6.127h-0.213l-14.565,34.415H42.788z"/>
	<path class="st1" d="M118.533,157.389H97.257v-37.325h21.275v2.399H99.973v14.117h17.521v2.401H99.973v16.008h18.559V157.389z"/>
	<path class="st1" d="M162.032,157.389h-2.743v-34.874h-12.648v-2.451h28.039v2.451h-12.648V157.389z"/>
	<path class="st1" d="M207.714,141.125v16.264h-2.716v-37.325h9.267c4.828,0,8.396,0.854,10.704,2.565
		c2.307,1.71,3.461,4.285,3.461,7.724c0,2.502-0.688,4.612-2.064,6.331c-1.376,1.72-3.466,2.953-6.271,3.702l10.571,17.004h-3.249
		l-10.039-16.264H207.714z M207.714,138.88h7.429c3.284,0,5.831-0.702,7.642-2.107c1.811-1.403,2.716-3.475,2.716-6.217
		c0-2.842-0.888-4.91-2.663-6.203c-1.776-1.292-4.669-1.94-8.681-1.94h-6.444V138.88z"/>
	<path class="st1" d="M294.669,138.675c0,5.924-1.544,10.609-4.633,14.055c-3.089,3.447-7.349,5.171-12.781,5.171
		c-5.415,0-9.666-1.724-12.755-5.171c-3.089-3.445-4.633-8.148-4.633-14.106c0-5.939,1.558-10.616,4.673-14.028
		c3.115-3.412,7.371-5.119,12.768-5.119c5.432,0,9.683,1.715,12.754,5.144C293.133,128.051,294.669,132.736,294.669,138.675z
		 M262.822,138.675c0,5.346,1.242,9.477,3.728,12.395c2.485,2.92,6.053,4.379,10.704,4.379c4.686,0,8.268-1.448,10.744-4.341
		c2.476-2.894,3.715-7.038,3.715-12.433c0-5.377-1.238-9.5-3.715-12.369c-2.476-2.867-6.041-4.301-10.691-4.301
		c-4.633,0-8.206,1.446-10.718,4.339C264.078,129.237,262.822,133.349,262.822,138.675z M274.698,116.668
		c1.295-1.345,2.578-2.804,3.848-4.379c1.269-1.573,2.134-2.77,2.596-3.586h3.754v0.433c-0.639,0.886-1.726,2.061-3.262,3.523
		c-1.535,1.464-3.226,2.936-5.073,4.417h-1.864V116.668z"/>
	<path class="st1" d="M351.588,130.786c0,3.609-1.278,6.375-3.834,8.299s-6.178,2.884-10.864,2.884h-6.018v15.421h-2.716v-37.325
		h9.533C346.955,120.064,351.588,123.639,351.588,130.786z M330.872,139.722h5.352c4.384,0,7.553-0.694,9.506-2.08
		c1.953-1.388,2.929-3.639,2.929-6.754c0-2.875-0.923-5.007-2.769-6.395c-1.847-1.386-4.705-2.08-8.574-2.08h-6.444V139.722z"/>
	<path class="st1" d="M417.321,138.675c0,5.924-1.544,10.609-4.633,14.055c-3.089,3.447-7.349,5.171-12.781,5.171
		c-5.415,0-9.666-1.724-12.755-5.171c-3.089-3.445-4.633-8.148-4.633-14.106c0-5.939,1.558-10.616,4.673-14.028
		c3.115-3.412,7.371-5.119,12.768-5.119c5.432,0,9.683,1.715,12.754,5.144C415.785,128.051,417.321,132.736,417.321,138.675z
		 M385.474,138.675c0,5.346,1.242,9.477,3.728,12.395c2.485,2.92,6.053,4.379,10.704,4.379c4.686,0,8.268-1.448,10.744-4.341
		c2.476-2.894,3.715-7.038,3.715-12.433c0-5.377-1.238-9.5-3.715-12.369c-2.476-2.867-6.041-4.301-10.691-4.301
		c-4.633,0-8.206,1.446-10.718,4.339C386.73,129.237,385.474,133.349,385.474,138.675z"/>
	<path class="st1" d="M450.808,157.389v-37.325h2.716v34.874h18.559v2.451H450.808z"/>
	<path class="st1" d="M524.609,157.389h-21.275v-37.325h21.275v2.399h-18.559v14.117h17.521v2.401h-17.521v16.008h18.559V157.389z"
		/>
</g>
</svg>
